<svg width="2232" height="725" viewBox="0 0 2232 725" preserveAspectRatio="none" fill="none" xmlns="http://www.w3.org/2000/svg">
    <path d="M0.5 28C64 40.6667 219.5 66.4 333.5 68H345.959C490.536 66.0941 736.747 0.5 881.5 0.5C1030.5 0.5 1302 68 1443.5 68C1585 68 1725 0.5 1882 0.5C2007.6 0.5 2167.33 37.8333 2232 68H1443.5H345.959C341.717 68.0559 337.562 68.057 333.5 68H0.5V28Z" fill="#E0EFFF" fill-opacity="0.1"/>
    <path d="M0 708.032C63.5 695.365 219 669.632 333 668.032H347.831C492.497 669.921 733.54 724.5 877.5 724.5C1026.5 724.5 1301.5 668.032 1443 668.032C1584.5 668.032 1721.5 724.5 1878.5 724.5C2004.1 724.5 2166.83 698.199 2231.5 668.032H1443H347.831C342.767 667.966 337.82 667.964 333 668.032H0V708.032Z" fill="#E0EFFF" fill-opacity="0.1"/>
    <rect y="68" width="2232" height="600" fill="#E0EFFF" fill-opacity="0.1"/>
</svg>
